<svg data-v-423bf9ae="" xmlns="http://www.w3.org/2000/svg" viewBox="0 0 379 90" class="iconLeft"><!----><!----><!----><g data-v-423bf9ae="" id="a6e86efc-050e-4543-8167-93ea18eae12b" fill="white" transform="matrix(5.545126438140869,0,0,5.545126438140869,68.5119400024414,7.072201728820801)"><path d="M6.10 10.72L6.10 10.72L6.10 10.72Q6.15 10.78 6.15 10.85L6.15 10.85L6.15 10.85Q6.15 11.17 5.47 11.34L5.47 11.34L5.47 11.34Q4.73 10.77 3.63 9.58L3.63 9.58L3.63 9.58Q2.39 8.25 1.79 7.73L1.79 7.73L1.79 7.73Q1.75 8.09 1.64 9.63L1.64 9.63L1.64 9.63Q1.57 10.79 1.39 11.48L1.39 11.48L1.39 11.48Q1.36 11.48 1.21 11.55L1.21 11.55L1.21 11.55Q1.06 11.62 0.97 11.59L0.97 11.59L0.97 11.59Q0.35 11.45 0.35 10.74L0.35 10.74L0.35 10.74Q0.35 10.53 0.41 10.18L0.41 10.18L0.41 10.18Q0.46 9.77 0.48 9.67L0.48 9.67L0.48 9.67Q0.53 8.86 0.55 7.74L0.55 7.74L0.55 6.22L0.55 6.22Q0.55 4.31 0.76 3.01L0.76 3.01L0.76 3.01Q0.90 2.14 2.39 2.21L2.39 2.21L2.39 2.21Q3.15 2.24 3.71 2.97L3.71 2.97L3.71 2.97Q4.23 3.64 4.23 4.42L4.23 4.42L4.23 4.42Q4.23 5.08 3.74 5.74L3.74 5.74L3.74 5.74Q3.32 6.33 2.70 6.66L2.70 6.66L2.70 6.66Q2.45 6.80 2.45 6.97L2.45 6.97L2.45 6.97Q2.45 7.15 2.74 7.41L2.74 7.41L2.74 7.41Q2.97 7.59 3.19 7.77L3.19 7.77L3.19 7.77Q3.21 7.78 4.73 9.17L4.73 9.17L4.73 9.17Q5.70 10.04 6.10 10.72ZM3.15 4.44L3.15 4.44L3.15 4.44Q3.19 4.19 3.18 3.99L3.18 3.99L3.18 3.99Q3.14 3.70 2.93 3.46L2.93 3.46L2.93 3.46Q2.73 3.22 2.28 3.22L2.28 3.22L2.28 3.22Q1.95 3.22 1.86 3.43L1.86 3.43L1.86 3.43Q1.79 3.78 1.79 4.23L1.79 4.23L1.79 4.23Q1.79 4.41 1.83 5.17L1.83 5.17L1.83 5.17Q1.86 5.74 1.83 6.10L1.83 6.10L1.83 6.10Q3.00 5.24 3.15 4.44ZM10.19 3.63L10.19 3.63L10.19 3.63Q9.67 3.84 8.67 4.12L8.67 4.12L8.67 4.12Q7.66 4.40 7.14 4.61L7.14 4.61L7.14 4.61Q7.01 4.97 6.96 6.23L6.96 6.23L6.96 6.23Q7.18 6.31 7.48 6.31L7.48 6.31L7.48 6.31Q7.69 6.31 8.13 6.24L8.13 6.24L8.13 6.24Q8.58 6.17 8.79 6.17L8.79 6.17L8.79 6.17Q9.18 6.17 9.46 6.34L9.46 6.34L9.46 6.34Q9.66 6.62 9.66 6.71L9.66 6.71L9.66 6.71Q9.66 6.80 9.56 6.86L9.56 6.86L9.56 6.86Q9.53 6.87 9.37 7.06L9.37 7.06L9.37 7.06Q9.25 7.18 9.09 7.17L9.09 7.17L9.09 7.17Q8.79 7.24 8.01 7.25L8.01 7.25L8.01 7.25Q7.35 7.27 6.96 7.42L6.96 7.42L6.96 7.42Q6.69 8.46 6.69 9.06L6.69 9.06L6.69 9.06Q6.69 9.46 6.80 9.70L6.80 9.70L6.80 9.70Q7.46 10.16 9.09 10.09L9.09 10.09L9.09 10.09Q9.20 10.09 9.32 9.99L9.32 9.99L9.32 9.99Q9.45 9.88 9.53 9.88L9.53 9.88L9.53 9.88Q9.93 9.80 10.05 10.47L10.05 10.47L10.05 10.47Q10.09 10.70 9.98 10.88L9.98 10.88L9.98 10.88Q9.86 11.07 9.63 11.09L9.63 11.09L9.63 11.09Q7.94 11.14 6.69 10.82L6.69 10.82L6.69 10.82Q6.30 10.72 5.98 10.39L5.98 10.39L5.98 10.39Q5.66 10.05 5.61 9.63L5.61 9.63L5.61 9.63Q5.49 8.41 5.61 7.45L5.61 7.45L5.61 7.45Q5.22 7.18 5.26 6.93L5.26 6.93L5.26 6.93Q5.28 6.80 5.48 6.70L5.48 6.70L5.48 6.70Q5.68 6.59 5.71 6.48L5.71 6.48L5.71 6.48Q5.74 6.37 5.82 5.15L5.82 5.15L5.82 5.15Q5.04 5.00 5.05 4.56L5.05 4.56L5.05 4.56Q5.07 4.16 5.54 3.92L5.54 3.92L5.54 3.92Q5.99 3.74 6.44 3.56L6.44 3.56L6.44 3.56Q6.97 3.29 7.76 3.08L7.76 3.08L7.76 3.08Q8.43 2.90 9.11 2.73L9.11 2.73L9.11 2.73Q9.18 2.72 9.28 2.72L9.28 2.72L9.28 2.72Q9.66 2.72 10.16 3.01L10.16 3.01L10.16 3.01Q10.18 3.07 10.23 3.22L10.23 3.22L10.23 3.22Q10.29 3.37 10.29 3.44L10.29 3.44L10.29 3.44Q10.29 3.56 10.19 3.63ZM15.44 10.25L15.44 10.25L15.44 10.25Q15.48 10.35 15.48 10.43L15.48 10.43L15.48 10.43Q15.48 10.58 15.34 10.72L15.34 10.72L15.34 10.72Q15.20 10.85 15.06 10.98L15.06 10.98L15.06 10.98Q13.33 10.85 11.07 10.22L11.07 10.22L11.07 10.22Q10.60 10.08 10.42 10.00L10.42 10.00L10.42 10.00Q10.08 9.84 9.93 9.56L9.93 9.56L9.93 9.56Q9.94 9.45 9.93 9.28L9.93 9.28L9.93 9.28Q11.52 7.46 11.90 7L11.90 7L11.90 7Q12.98 5.67 13.61 4.52L13.61 4.52L13.61 4.52Q13.20 4.30 12.70 4.30L12.70 4.30L12.70 4.30Q12.40 4.30 11.84 4.39L11.84 4.39L11.84 4.39Q11.27 4.48 10.99 4.48L10.99 4.48L10.99 4.48Q10.63 4.48 10.33 4.38L10.33 4.38L10.33 4.38Q9.93 4.14 9.93 3.88L9.93 3.88L9.93 3.88Q9.93 3.78 10.00 3.70L10.00 3.70L10.00 3.70Q10.40 3.37 11.17 3.37L11.17 3.37L11.17 3.37Q11.26 3.37 11.42 3.37L11.42 3.37L11.42 3.37Q11.59 3.37 11.68 3.37L11.68 3.37L11.68 3.37Q12.08 3.37 12.35 3.30L12.35 3.30L12.35 3.30Q12.91 3.35 13.48 3.40L13.48 3.40L13.48 3.40Q14.15 3.49 14.53 3.74L14.53 3.74L14.53 3.74Q14.90 3.99 14.90 4.37L14.90 4.37L14.90 4.37Q14.90 4.48 14.85 4.59L14.85 4.59L14.85 4.59Q14.41 5.70 13.40 6.97L13.40 6.97L13.40 6.97Q12.47 8.06 11.55 9.14L11.55 9.14L11.55 9.14Q13.64 9.76 15.13 9.94L15.13 9.94L15.13 9.94Q15.29 9.94 15.44 10.25ZM19.96 2.34L19.96 2.34L19.96 2.34Q19.57 3.92 18.52 6.45L18.52 6.45L18.52 6.45Q17.29 9.41 16.94 10.53L16.94 10.53L16.94 10.53Q16.87 10.75 16.87 11.09L16.87 11.09L16.87 11.09Q16.88 11.55 16.87 11.68L16.87 11.68L16.87 11.68Q16.83 12.17 16.35 12.17L16.35 12.17L16.35 12.17Q16.11 12.19 15.84 12.00L15.84 12.00L15.84 12.00Q15.57 11.82 15.58 11.61L15.58 11.61L15.58 11.61Q15.62 10.58 16.10 9.27L16.10 9.27L16.10 9.27Q16.53 8.15 16.97 7.03L16.97 7.03L16.97 7.03Q15.97 4.37 15.27 3.14L15.27 3.14L15.27 3.14Q15.23 3.07 15.23 3.00L15.23 3.00L15.23 3.00Q15.23 2.84 15.41 2.71L15.41 2.71L15.41 2.71Q15.58 2.58 15.75 2.58L15.75 2.58L15.75 2.58Q15.78 2.58 16.28 2.73L16.28 2.73L16.28 2.73Q16.63 3.26 17.01 4.10L17.01 4.10L17.01 4.10Q17.33 4.82 17.64 5.53L17.64 5.53L17.64 5.53Q17.92 4.69 18.20 3.86L18.20 3.86L18.20 3.86Q18.52 2.90 18.91 2.27L18.91 2.27L18.91 2.27Q19.03 2.07 19.31 2.07L19.31 2.07L19.31 2.07Q19.70 2.07 19.96 2.34ZM24.56 7.53L24.56 7.53L24.56 7.53Q24.42 7.85 24.29 8.18L24.29 8.18L24.29 8.18Q24.12 8.55 23.93 8.78L23.93 8.78L23.93 8.78Q23.49 9.32 23.06 9.86L23.06 9.86L23.06 9.86Q22.54 10.50 22.12 10.75L22.12 10.75L22.12 10.75Q21.98 10.92 21.81 11.10L21.81 11.10L21.81 11.10Q21.64 11.28 21.48 11.28L21.48 11.28L21.48 11.28Q21.39 11.28 21.28 11.24L21.28 11.24L21.28 11.24Q21.17 11.20 21.04 11.14L21.04 11.14L21.04 11.14Q20.90 11.09 20.85 10.96L20.85 10.96L20.85 10.96Q20.80 10.37 20.80 9.70L20.80 9.70L20.80 9.70Q20.80 9.02 20.86 7.66L20.86 7.66L20.86 7.66Q20.92 6.30 20.92 5.61L20.92 5.61L20.92 5.61Q20.92 4.70 20.85 3.95L20.85 3.95L20.85 3.95Q20.83 3.93 20.54 3.63L20.54 3.63L20.54 3.63Q20.36 3.44 20.36 3.29L20.36 3.29L20.36 3.29Q20.36 3.22 20.38 3.15L20.38 3.15L20.38 3.15Q20.45 2.98 20.69 2.95L20.69 2.95L20.69 2.95Q20.87 2.93 21.06 2.91L21.06 2.91L21.06 2.91Q22.23 3.16 23.52 4.23L23.52 4.23L23.52 4.23Q23.86 4.51 24.07 4.82L24.07 4.82L24.07 4.82Q24.74 5.81 24.74 6.68L24.74 6.68L24.74 6.68Q24.74 7.13 24.56 7.53ZM23.55 6.03L23.55 6.03L23.55 6.03Q23.42 5.15 22.05 4.48L22.05 4.48L22.05 4.48Q21.95 6.82 21.99 9.44L21.99 9.44L21.99 9.44Q23.58 7.85 23.58 6.43L23.58 6.43L23.58 6.43Q23.58 6.23 23.55 6.03ZM30.21 3.63L30.21 3.63L30.21 3.63Q29.69 3.84 28.69 4.12L28.69 4.12L28.69 4.12Q27.68 4.40 27.16 4.61L27.16 4.61L27.16 4.61Q27.03 4.97 26.98 6.23L26.98 6.23L26.98 6.23Q27.20 6.31 27.50 6.31L27.50 6.31L27.50 6.31Q27.71 6.31 28.15 6.24L28.15 6.24L28.15 6.24Q28.60 6.17 28.81 6.17L28.81 6.17L28.81 6.17Q29.20 6.17 29.48 6.34L29.48 6.34L29.48 6.34Q29.68 6.62 29.68 6.71L29.68 6.71L29.68 6.71Q29.68 6.80 29.58 6.86L29.58 6.86L29.58 6.86Q29.55 6.87 29.39 7.06L29.39 7.06L29.39 7.06Q29.27 7.18 29.11 7.17L29.11 7.17L29.11 7.17Q28.81 7.24 28.03 7.25L28.03 7.25L28.03 7.25Q27.37 7.27 26.98 7.42L26.98 7.42L26.98 7.42Q26.71 8.46 26.71 9.06L26.71 9.06L26.71 9.06Q26.71 9.46 26.82 9.70L26.82 9.70L26.82 9.70Q27.48 10.16 29.11 10.09L29.11 10.09L29.11 10.09Q29.22 10.09 29.34 9.99L29.34 9.99L29.34 9.99Q29.47 9.88 29.55 9.88L29.55 9.88L29.55 9.88Q29.95 9.80 30.07 10.47L30.07 10.47L30.07 10.47Q30.11 10.70 29.99 10.88L29.99 10.88L29.99 10.88Q29.88 11.07 29.65 11.09L29.65 11.09L29.65 11.09Q27.96 11.14 26.71 10.82L26.71 10.82L26.71 10.82Q26.32 10.72 26.00 10.39L26.00 10.39L26.00 10.39Q25.68 10.05 25.63 9.63L25.63 9.63L25.63 9.63Q25.51 8.41 25.63 7.45L25.63 7.45L25.63 7.45Q25.24 7.18 25.28 6.93L25.28 6.93L25.28 6.93Q25.30 6.80 25.50 6.70L25.50 6.70L25.50 6.70Q25.70 6.59 25.73 6.48L25.73 6.48L25.73 6.48Q25.76 6.37 25.84 5.15L25.84 5.15L25.84 5.15Q25.06 5.00 25.07 4.56L25.07 4.56L25.07 4.56Q25.09 4.16 25.56 3.92L25.56 3.92L25.56 3.92Q26.01 3.74 26.46 3.56L26.46 3.56L26.46 3.56Q26.99 3.29 27.78 3.08L27.78 3.08L27.78 3.08Q28.45 2.90 29.13 2.73L29.13 2.73L29.13 2.73Q29.20 2.72 29.30 2.72L29.30 2.72L29.30 2.72Q29.68 2.72 30.18 3.01L30.18 3.01L30.18 3.01Q30.20 3.07 30.25 3.22L30.25 3.22L30.25 3.22Q30.31 3.37 30.31 3.44L30.31 3.44L30.31 3.44Q30.31 3.56 30.21 3.63ZM36.46 2.14L36.46 2.14L36.46 2.14Q36.26 4.02 36.08 5.91L36.08 5.91L36.08 5.91Q35.84 8.15 35.84 9.65L35.84 9.65L35.84 9.65Q35.84 10.14 35.87 10.61L35.87 10.61L35.87 10.61Q35.88 10.84 35.71 11.00L35.71 11.00L35.71 11.00Q35.53 11.17 35.31 11.17L35.31 11.17L35.31 11.17Q34.87 11.17 34.58 10.58L34.58 10.58L34.58 10.58Q33.68 8.83 32.35 5.10L32.35 5.10L32.35 5.10Q32.33 5.01 32.28 5.01L32.28 5.01L32.28 5.01Q32.19 5.01 32.16 5.21L32.16 5.21L32.16 5.21Q31.92 7.21 31.92 9.42L31.92 9.42L31.92 9.42Q31.92 10.49 31.98 11.59L31.98 11.59L31.98 11.59Q31.99 12.00 31.74 12.15L31.74 12.15L31.74 12.15Q31.64 12.25 31.53 12.25L31.53 12.25L31.53 12.25Q31.43 12.25 31.28 12.17L31.28 12.17L31.28 12.17Q31.07 12.07 31.01 12.04L31.01 12.04L31.01 12.04Q30.83 11.98 30.79 11.70L30.79 11.70L30.79 11.70Q30.77 11.48 30.76 11.24L30.76 11.24L30.76 11.24Q30.72 10.46 30.72 9.60L30.72 9.60L30.72 9.60Q30.72 8.12 30.88 5.89L30.88 5.89L30.88 5.89Q31.15 2.51 31.18 2.14L31.18 2.14L31.18 2.14Q31.19 1.83 31.70 1.83L31.70 1.83L31.70 1.83Q31.93 1.81 32.40 2.18L32.40 2.18L32.40 2.18Q32.84 3.04 33.50 4.96L33.50 4.96L33.50 4.96Q34.13 6.79 34.65 7.74L34.65 7.74L34.65 7.74Q34.86 5.88 35.31 2.11L35.31 2.11L35.31 2.11Q35.35 1.83 35.71 1.83L35.71 1.83L35.71 1.83Q35.84 1.83 36.01 1.88L36.01 1.88L36.01 1.88Q36.23 1.93 36.27 1.95L36.27 1.95L36.27 1.95Q36.41 2.00 36.46 2.14ZM44.23 1.90L44.23 1.90L44.23 1.90Q44.10 2.41 43.75 2.49L43.75 2.49L43.75 2.49Q42.84 2.72 40.59 3.08L40.59 3.08L40.59 3.08Q40.31 6.57 40.31 8.89L40.31 8.89L40.31 8.89Q40.31 9.77 40.33 10.63L40.33 10.63L40.33 10.63Q40.35 10.89 40.31 11.03L40.31 11.03L40.31 11.03Q40.24 11.26 40.03 11.24L40.03 11.24L40.03 11.24Q39.62 11.23 39.35 10.90L39.35 10.90L39.35 10.90Q39.09 10.57 39.06 10.16L39.06 10.16L39.06 10.16Q39.03 9.65 39.03 9.07L39.03 9.07L39.03 9.07Q39.03 8.15 39.16 6.15L39.16 6.15L39.16 6.15Q39.28 4.23 39.27 3.22L39.27 3.22L39.27 3.22Q38.89 3.19 38.22 3.29L38.22 3.29L38.22 3.29Q37.45 3.40 37.16 3.40L37.16 3.40L37.16 3.40Q36.47 3.40 36.04 3.04L36.04 3.04L36.04 3.04Q35.87 2.67 35.87 2.66L35.87 2.66L35.87 2.66Q35.87 2.56 35.97 2.45L35.97 2.45L35.97 2.45Q36.41 2.30 37.80 2.17L37.80 2.17L37.80 2.17Q39.02 2.04 39.62 1.72L39.62 1.72L39.62 1.72Q40.11 1.88 40.74 1.88L40.74 1.88L40.74 1.88Q41.37 1.88 41.94 1.72L41.94 1.72L41.94 1.72Q42.11 1.71 42.80 1.53L42.80 1.53L42.80 1.53Q43.30 1.40 43.64 1.44L43.64 1.44L43.64 1.44Q43.89 1.44 43.85 1.65L43.85 1.65L43.85 1.65Q44.23 1.65 44.23 1.90ZM44.79 9.39L44.79 9.39L44.79 9.39Q44.91 9.90 44.74 10.07L44.74 10.07L44.74 10.07Q44.56 10.25 44.23 10.22L44.23 10.22L44.23 10.22Q43.95 10.21 43.69 9.97L43.69 9.97L43.69 9.97Q43.44 9.73 43.44 9.46L43.44 9.46L43.44 9.46Q43.44 9.30 43.58 9.15L43.58 9.15L43.58 9.15Q43.72 9.00 43.88 9.02L43.88 9.02L43.88 9.02Q44.14 9.03 44.41 9.06L44.41 9.06L44.41 9.06Q44.72 9.13 44.79 9.39ZM50.11 7.53L50.11 7.53L50.11 7.53Q49.97 7.85 49.84 8.18L49.84 8.18L49.84 8.18Q49.67 8.55 49.48 8.78L49.48 8.78L49.48 8.78Q49.04 9.32 48.61 9.86L48.61 9.86L48.61 9.86Q48.09 10.50 47.67 10.75L47.67 10.75L47.67 10.75Q47.53 10.92 47.36 11.10L47.36 11.10L47.36 11.10Q47.19 11.28 47.03 11.28L47.03 11.28L47.03 11.28Q46.94 11.28 46.83 11.24L46.83 11.24L46.83 11.24Q46.72 11.20 46.58 11.14L46.58 11.14L46.58 11.14Q46.45 11.09 46.40 10.96L46.40 10.96L46.40 10.96Q46.35 10.37 46.35 9.70L46.35 9.70L46.35 9.70Q46.35 9.02 46.41 7.66L46.41 7.66L46.41 7.66Q46.47 6.30 46.47 5.61L46.47 5.61L46.47 5.61Q46.47 4.70 46.40 3.95L46.40 3.95L46.40 3.95Q46.38 3.93 46.09 3.63L46.09 3.63L46.09 3.63Q45.91 3.44 45.91 3.29L45.91 3.29L45.91 3.29Q45.91 3.22 45.93 3.15L45.93 3.15L45.93 3.15Q46.00 2.98 46.24 2.95L46.24 2.95L46.24 2.95Q46.42 2.93 46.61 2.91L46.61 2.91L46.61 2.91Q47.78 3.16 49.07 4.23L49.07 4.23L49.07 4.23Q49.41 4.51 49.62 4.82L49.62 4.82L49.62 4.82Q50.29 5.81 50.29 6.68L50.29 6.68L50.29 6.68Q50.29 7.13 50.11 7.53ZM49.10 6.03L49.10 6.03L49.10 6.03Q48.97 5.15 47.60 4.48L47.60 4.48L47.60 4.48Q47.50 6.82 47.54 9.44L47.54 9.44L47.54 9.44Q49.13 7.85 49.13 6.43L49.13 6.43L49.13 6.43Q49.13 6.23 49.10 6.03ZM55.76 3.63L55.76 3.63L55.76 3.63Q55.24 3.84 54.24 4.12L54.24 4.12L54.24 4.12Q53.23 4.40 52.71 4.61L52.71 4.61L52.71 4.61Q52.58 4.97 52.53 6.23L52.53 6.23L52.53 6.23Q52.75 6.31 53.05 6.31L53.05 6.31L53.05 6.31Q53.26 6.31 53.70 6.24L53.70 6.24L53.70 6.24Q54.15 6.17 54.36 6.17L54.36 6.17L54.36 6.17Q54.75 6.17 55.03 6.34L55.03 6.34L55.03 6.34Q55.23 6.62 55.23 6.71L55.23 6.71L55.23 6.71Q55.23 6.80 55.13 6.86L55.13 6.86L55.13 6.86Q55.10 6.87 54.94 7.06L54.94 7.06L54.94 7.06Q54.82 7.18 54.66 7.17L54.66 7.17L54.66 7.17Q54.36 7.24 53.58 7.25L53.58 7.25L53.58 7.25Q52.92 7.27 52.53 7.42L52.53 7.42L52.53 7.42Q52.26 8.46 52.26 9.06L52.26 9.06L52.26 9.06Q52.26 9.46 52.37 9.70L52.37 9.70L52.37 9.70Q53.03 10.16 54.66 10.09L54.66 10.09L54.66 10.09Q54.77 10.09 54.89 9.99L54.89 9.99L54.89 9.99Q55.02 9.88 55.10 9.88L55.10 9.88L55.10 9.88Q55.50 9.80 55.62 10.47L55.62 10.47L55.62 10.47Q55.66 10.70 55.54 10.88L55.54 10.88L55.54 10.88Q55.43 11.07 55.20 11.09L55.20 11.09L55.20 11.09Q53.51 11.14 52.26 10.82L52.26 10.82L52.26 10.82Q51.87 10.72 51.55 10.39L51.55 10.39L51.55 10.39Q51.23 10.05 51.18 9.63L51.18 9.63L51.18 9.63Q51.06 8.41 51.18 7.45L51.18 7.45L51.18 7.45Q50.79 7.18 50.83 6.93L50.83 6.93L50.83 6.93Q50.85 6.80 51.05 6.70L51.05 6.70L51.05 6.70Q51.25 6.59 51.28 6.48L51.28 6.48L51.28 6.48Q51.31 6.37 51.39 5.15L51.39 5.15L51.39 5.15Q50.61 5.00 50.62 4.56L50.62 4.56L50.62 4.56Q50.64 4.16 51.11 3.92L51.11 3.92L51.11 3.92Q51.56 3.74 52.01 3.56L52.01 3.56L52.01 3.56Q52.54 3.29 53.33 3.08L53.33 3.08L53.33 3.08Q54.00 2.90 54.68 2.73L54.68 2.73L54.68 2.73Q54.75 2.72 54.85 2.72L54.85 2.72L54.85 2.72Q55.23 2.72 55.73 3.01L55.73 3.01L55.73 3.01Q55.75 3.07 55.80 3.22L55.80 3.22L55.80 3.22Q55.86 3.37 55.86 3.44L55.86 3.44L55.86 3.44Q55.86 3.56 55.76 3.63Z"></path></g><!----><g data-v-423bf9ae="" id="9026b14f-6482-4693-b67f-cb05e7fe4cbc" transform="matrix(1.301180362701416,0,0,1.301180362701416,-32.94374084472656,-7.861201763153076)" stroke="none" fill="white"><path d="M55.84 68.661c.85 3.458-3.946 6.686-10.84 6.686s-11.689-3.228-10.84-6.686c.556-2.263 3.452-4.037 7.12-4.767a81.009 81.009 0 0 0 2.238 2.608l1.514 1.668 1.478-1.7c.152-.175.949-1.099 2.143-2.588 3.699.721 6.627 2.502 7.187 4.779zM45 65.158s-19.198-21.17-19.382-37.493h-.009v-.764a4.285 4.285 0 0 1 4.165-4.279c.493-1.826 2.145-3.178 4.127-3.178.306 0 .602.038.89.1v-6.263l-2.311 1.565a.709.709 0 0 1-.795-1.173L42.75 6.179l11.064 7.494a.708.708 0 1 1-.795 1.174l-2.311-1.565v4.057l3.417 2.314V22.1c.017 0 .033-.005.05-.005a2.495 2.495 0 0 1 2.495 2.495v.503c1.153.132 2.212.281 3.143.447v-6.994a.496.496 0 1 1 .992 0v7.189c2.249.478 3.585 1.061 3.585 1.692C64.391 42.847 45 65.158 45 65.158zm4.098-10.768a.355.355 0 0 0-.354-.354H46.47a.354.354 0 0 0 0 .708h2.274a.355.355 0 0 0 .354-.354zM38.556 41.924c0 .195.159.354.354.354h2.274a.354.354 0 0 0 0-.708H38.91a.353.353 0 0 0-.354.354zm.098-3.754a.354.354 0 0 0 0-.708H36.38a.354.354 0 0 0 0 .708h2.274zm7.816-.656a.354.354 0 0 0 0 .708h2.274a.354.354 0 0 0 0-.708H46.47zm2.534-11.182v-5.808h-.82v5.808h.82zM49 41.621a.354.354 0 0 0 0 .709h2.274a.354.354 0 0 0 0-.708H49zm2.539-3.425h2.274a.354.354 0 0 0 0-.708h-2.274a.354.354 0 0 0 0 .708zm-2.795 7.546H46.47a.354.354 0 0 0 0 .708h2.274a.354.354 0 0 0 0-.708zm-4.788-4.173a.354.354 0 0 0 0 .708h2.274a.354.354 0 0 0 0-.708h-2.274zm.097-3.754a.355.355 0 0 0-.354-.354h-2.274a.354.354 0 0 0 0 .708h2.274a.353.353 0 0 0 .354-.354zm-2.983 8.229c0 .195.159.354.354.354h2.274a.354.354 0 0 0 0-.708h-2.274a.354.354 0 0 0-.354.354zm2.531 4.173c0 .195.159.354.354.354h2.274a.354.354 0 0 0 0-.708h-2.274a.353.353 0 0 0-.354.354zm8.028.052a.355.355 0 0 0-.354-.354H49a.354.354 0 0 0 0 .708h2.274a.355.355 0 0 0 .355-.354zm2.515-4.225a.355.355 0 0 0-.354-.354h-2.274a.354.354 0 0 0 0 .708h2.274a.355.355 0 0 0 .354-.354zm2.53-4.12a.355.355 0 0 0-.354-.354h-2.274a.354.354 0 0 0 0 .708h2.274a.355.355 0 0 0 .354-.354zm2.514-4.056a.355.355 0 0 0-.354-.354H56.56a.354.354 0 0 0 0 .708h2.274a.353.353 0 0 0 .354-.354zm-7.379-12.14a4.41 4.41 0 0 0-.992.558v-5.762h-.82v5.808h.765c-1.061.811-1.758 2.077-1.758 3.512v.702a.496.496 0 1 0 .992 0v-.702a3.448 3.448 0 0 1 3.444-3.443c.858 0 1.683.321 2.32.905l.186.17.247-.05a1.797 1.797 0 0 1 2.144 1.759v1.361a.496.496 0 1 0 .992 0v-1.361a2.79 2.79 0 0 0-3.083-2.77 4.415 4.415 0 0 0-2.806-1.006c-.251 0-.492.034-.732.074v-4.958h-.899v5.203zm-21.703 2.475a5.104 5.104 0 0 1 5.098-5.098c1.271 0 2.491.476 3.435 1.34l.186.169.246-.049a2.758 2.758 0 0 1 3.294 2.701v1.498a4.757 4.757 0 0 0-1.66-.302 4.793 4.793 0 0 0-4.788 4.788v.765a.496.496 0 1 0 .992 0v-.765a3.8 3.8 0 0 1 3.795-3.796c.946 0 1.854.354 2.558.998l.185.169.246-.049a2 2 0 0 1 2.39 1.959v1.483a.496.496 0 1 0 .992 0v-1.483a2.994 2.994 0 0 0-3.327-2.97c-.129-.106-.27-.191-.408-.282.004-.027.016-.051.016-.079v-1.933c0-.324-.052-.634-.129-.935h3.964v-5.808h-.754a.496.496 0 1 1 0-.992h4.983l-2.129-1.442v-5.708c0-.019.009-.035.011-.053L42.75 7.89l-6.552 4.439c.001.018.011.034.011.053v9.82a6.115 6.115 0 0 0-1.005-.089 6.096 6.096 0 0 0-6.09 6.09v.996a.496.496 0 1 0 .992 0v-.996zm1.229 9.967h2.274a.354.354 0 0 0 0-.708h-2.274a.354.354 0 0 0 0 .708zm2.53 4.108h2.274a.354.354 0 0 0 0-.708h-2.274a.354.354 0 0 0 0 .708zm2.515 4.12h2.274a.354.354 0 0 0 0-.708H36.38a.354.354 0 0 0 0 .708zm2.53 4.173h2.274a.354.354 0 0 0 0-.708H38.91a.354.354 0 0 0 0 .708zm2.515 4.121h2.274a.354.354 0 0 0 0-.708h-2.274a.354.354 0 0 0 0 .708zm2.531 4.225h2.274a.354.354 0 0 0 0-.708h-2.274a.354.354 0 0 0 0 .708zm-3.329-43.768a2.986 2.986 0 0 1-.873-2.111 3 3 0 0 1 2.996-2.996c.823 0 1.57.334 2.112.874.002.002.005.002.006.004l.004.007c.539.542.873 1.288.873 2.111a3 3 0 0 1-2.996 2.996c-.823 0-1.57-.334-2.112-.874l-.007-.004a.01.01 0 0 0-.003-.007zm3.139-.395l-1.016-1.016-1.016 1.016c.299.178.644.287 1.016.287s.717-.109 1.016-.287zm.701-2.733l-1.016 1.016 1.016 1.016c.178-.299.287-.644.287-1.016s-.109-.717-.287-1.016zm-2.733-.701l1.016 1.016 1.016-1.016c-.299-.178-.644-.287-1.016-.287s-.717.109-1.016.287zm-.988 1.717c0 .372.109.717.287 1.016l1.016-1.016-1.016-1.016a1.98 1.98 0 0 0-.287 1.016zm17.286 10.775a.498.498 0 0 0 .695-.094.495.495 0 0 0-.093-.695 2.697 2.697 0 0 1-.323-4.021l.156-.166-.051-.425c0-1.227 1.026-3.711 1.865-3.711.84 0 1.866 2.484 1.855 3.79l-.041.346.156.166c.483.512.75 1.174.75 1.864 0 .851-.391 1.637-1.073 2.157a.496.496 0 1 0 .603.788 3.69 3.69 0 0 0 .603-5.31c.002-.029.004-.06.004-.091 0-1.396-1.109-4.703-2.858-4.703s-2.857 3.307-2.857 4.703c0 .029.001.059.004.091a3.69 3.69 0 0 0 .605 5.311z"></path></g><!----></svg>